<svg width="24" height="24" style="filter: grayscale(1);" viewBox="0 0 32 32"><g fill="none" fill-rule="evenodd"><path fill="#2FBBF4" d="M14.833 6.688h-3.756V15.1h3.756c1.315 0 2.413-.138 3.296-.413.882-.275 1.555-.726 2.02-1.352.462-.626.693-1.446.693-2.46 0-1.215-.356-2.204-1.07-2.967-.8-.814-2.448-1.221-4.939-1.221m1.352 12.62h-5.108V27.1c0 1.114-.263 1.959-.789 2.535-.525.576-1.189.864-1.99.864-.839 0-1.515-.285-2.028-.854-.514-.57-.77-1.406-.77-2.507V5.918c0-1.227.281-2.103.845-2.63.563-.525 1.458-.788 2.685-.788h7.155c2.116 0 3.743.163 4.883.488 1.127.313 2.1.833 2.92 1.559a7.017 7.017 0 0 1 1.868 2.667c.426 1.05.64 2.235.64 3.549 0 2.805-.865 4.93-2.593 6.376-1.727 1.446-4.3 2.169-7.718 2.169"></path><path stroke="#092933" stroke-linejoin="round" d="M14.833 6.688h-3.756V15.1h3.756c1.315 0 2.413-.138 3.296-.413.882-.275 1.555-.726 2.02-1.352.462-.626.693-1.446.693-2.46 0-1.215-.356-2.204-1.07-2.967-.8-.814-2.448-1.221-4.939-1.221Zm1.352 12.62h-5.108V27.1c0 1.114-.263 1.959-.789 2.535-.525.576-1.189.864-1.99.864-.839 0-1.515-.285-2.028-.854-.514-.57-.77-1.406-.77-2.507V5.918c0-1.227.281-2.103.845-2.63.563-.525 1.458-.788 2.685-.788h7.155c2.116 0 3.743.163 4.883.488 1.127.313 2.1.833 2.92 1.559a7.017 7.017 0 0 1 1.868 2.667c.426 1.05.64 2.235.64 3.549 0 2.805-.865 4.93-2.593 6.376-1.727 1.446-4.3 2.169-7.718 2.169Z" style="
"></path><path fill="#332E09" d="M8.298 29c-.697 0-1.238-.226-1.656-.689C6.216 27.839 6 27.108 6 26.139v1c0 .969.216 1.7.642 2.172.418.463.959.689 1.656.689.66 0 1.19-.229 1.622-.701.436-.478.657-1.217.657-2.198v-1c0 .981-.221 1.72-.657 2.198-.431.472-.962.701-1.622.701m17.677-18.716c-.1 2.405-.878 4.204-2.392 5.471-1.627 1.362-4.116 2.053-7.397 2.053h-5.61v1h5.61c3.28 0 5.77-.691 7.397-2.053 1.623-1.359 2.412-3.318 2.412-5.992 0-.164-.013-.32-.02-.479" opacity=".204"></path><path stroke="#FFF" stroke-dasharray="1,2,6,2,3" stroke-linecap="round" stroke-linejoin="round" d="M11.512 4.145h6.774"></path></g></svg>